<mxfile host="app.diagrams.net" modified="2020-06-23T15:30:04.435Z" agent="5.0 (X11; Linux x86_64) AppleWebKit/537.36 (KHTML, like Gecko) Chrome/83.0.4103.106 Safari/537.36" etag="sR5Znx56sPZklmxodcxa" version="13.3.1" type="github">
  <diagram id="zdj_KpDyRdO59Njs6Imr" name="Page-1">
    <mxGraphModel dx="1367" dy="774" grid="1" gridSize="10" guides="1" tooltips="1" connect="1" arrows="1" fold="1" page="1" pageScale="1" pageWidth="2336" pageHeight="1654" math="0" shadow="0">
      <root>
        <mxCell id="0" />
        <mxCell id="1" parent="0" />
        <mxCell id="eEMoR4PwhYIKro9L3BVg-1" value="tst omg" style="rounded=0;whiteSpace=wrap;html=1;" vertex="1" parent="1">
          <mxGeometry x="630" y="370" width="120" height="60" as="geometry" />
        </mxCell>
      </root>
    </mxGraphModel>
  </diagram>
</mxfile>
